<?xml version="1.0" standalone="no"?>
<!DOCTYPE svg PUBLIC "-//W3C//DTD SVG 20010904//EN"
 "http://www.w3.org/TR/2001/REC-SVG-20010904/DTD/svg10.dtd">
<svg version="1.0" xmlns="http://www.w3.org/2000/svg"
 width="1000.000000pt" height="294.000000pt" viewBox="0 0 1000.000000 294.000000"
 preserveAspectRatio="xMidYMid meet">

<g transform="translate(0.000000,294.000000) scale(0.100000,-0.100000)"
fill="#000000" stroke="none">
<path d="M1465 2699 c-367 -62 -709 -311 -882 -645 -146 -280 -174 -627 -77
-936 28 -87 93 -224 142 -295 l28 -43 334 768 c423 974 390 906 440 926 33 13
46 14 77 3 44 -14 83 -66 83 -110 0 -18 -89 -239 -207 -514 -113 -266 -204
-486 -201 -488 3 -3 224 -4 491 -3 l486 3 -282 673 -282 672 -50 -1 c-27 -1
-72 -5 -100 -10z"/>
<path d="M1895 2667 c7 -18 104 -246 215 -507 110 -261 283 -670 383 -907 100
-238 186 -431 191 -430 19 6 116 205 145 297 49 157 56 203 55 385 0 138 -4
186 -21 255 -95 381 -313 659 -648 827 -76 38 -232 93 -302 106 l-32 6 14 -32z"/>
<path d="M1097 1154 c-11 -19 -237 -554 -237 -562 0 -24 146 -125 266 -185
189 -95 369 -132 593 -124 215 8 397 60 574 165 84 50 183 126 200 154 8 12
-13 73 -96 270 -59 139 -111 258 -115 264 -9 14 -1176 31 -1185 18z"/>
<path d="M8551 1131 c-25 -35 -17 -40 18 -10 17 14 21 23 14 30 -7 7 -17 1
-32 -20z"/>
<path d="M8825 985 c0 -133 3 -175 13 -175 6 0 12 10 12 22 l0 21 24 -22 c13
-12 42 -25 64 -28 75 -10 132 46 132 131 0 38 -6 52 -33 82 -44 49 -97 56
-149 20 l-38 -25 0 74 c0 53 -4 75 -12 75 -10 0 -13 -42 -13 -175z m185 28
c59 -53 48 -155 -20 -183 -70 -29 -146 23 -144 99 3 95 98 143 164 84z"/>
<path d="M9470 985 c0 -133 3 -175 13 -175 9 0 11 40 9 175 -2 102 -7 175 -12
175 -6 0 -10 -70 -10 -175z"/>
<path d="M6110 1135 c0 -8 4 -15 9 -15 5 0 11 7 15 15 3 9 0 15 -9 15 -8 0
-15 -7 -15 -15z"/>
<path d="M9250 1135 c0 -8 7 -15 15 -15 8 0 15 7 15 15 0 8 -7 15 -15 15 -8 0
-15 -7 -15 -15z"/>
<path d="M8160 1091 c0 -33 -4 -40 -22 -44 l-23 -4 23 -8 c21 -7 22 -13 22
-101 0 -82 3 -97 21 -115 21 -21 79 -24 86 -3 2 6 -7 9 -25 6 -50 -7 -62 17
-62 119 l0 89 45 0 c57 0 59 18 3 22 -42 3 -43 4 -46 41 -4 49 -22 48 -22 -2z"/>
<path d="M3303 1049 c-18 -5 -33 -14 -33 -20 0 -7 7 -8 18 -4 9 4 33 9 52 12
44 6 90 -26 90 -63 0 -24 -2 -24 -48 -18 -87 11 -154 -37 -138 -100 13 -54
119 -73 167 -30 17 16 19 16 19 1 0 -10 5 -17 10 -17 6 0 10 39 10 98 0 89 -2
100 -22 119 -28 26 -82 35 -125 22z m112 -119 c23 -9 26 -14 21 -38 -16 -66
-105 -95 -153 -50 -29 27 -29 43 2 73 26 27 82 33 130 15z"/>
<path d="M3668 1044 c-22 -11 -28 -22 -28 -48 0 -40 9 -48 82 -76 64 -24 81
-49 52 -81 -21 -23 -68 -25 -108 -4 -34 18 -50 10 -22 -11 25 -18 79 -28 111
-20 36 9 61 51 49 84 -7 21 -25 33 -74 53 -55 22 -65 30 -68 52 -5 38 33 55
87 39 47 -14 51 -15 51 -2 0 9 -63 30 -90 30 -8 -1 -27 -8 -42 -16z"/>
<path d="M4012 1050 c-12 -5 -27 -21 -32 -36 -15 -40 8 -67 78 -93 63 -23 78
-40 62 -72 -15 -28 -58 -35 -107 -17 -58 21 -65 4 -8 -17 57 -22 109 -14 132
21 28 44 9 75 -66 104 -76 31 -91 50 -60 81 21 21 42 22 107 3 13 -4 22 -2 22
4 0 11 -62 32 -90 31 -8 0 -25 -4 -38 -9z"/>
<path d="M4380 1047 c-75 -38 -92 -150 -31 -210 27 -28 38 -32 85 -32 39 0 60
5 75 19 28 26 20 31 -18 12 -46 -24 -86 -20 -120 12 -16 15 -32 37 -36 50 -6
22 -6 22 99 22 100 0 106 1 106 20 0 85 -87 144 -160 107z m92 -18 c16 -9 48
-64 48 -84 0 -3 -43 -5 -96 -5 -94 0 -95 0 -89 23 10 33 62 77 91 77 14 0 34
-5 46 -11z"/>
<path d="M4738 1044 c-22 -11 -28 -22 -28 -48 0 -40 9 -48 82 -76 67 -25 84
-53 48 -82 -27 -22 -65 -23 -104 -3 -34 18 -50 10 -22 -11 25 -18 79 -28 111
-20 36 9 61 51 49 84 -7 21 -25 33 -74 53 -55 22 -65 30 -68 52 -5 38 33 55
87 39 47 -14 51 -15 51 -2 0 9 -63 30 -90 30 -8 -1 -27 -8 -42 -16z"/>
<path d="M5082 1050 c-12 -5 -27 -21 -32 -36 -15 -40 8 -67 78 -93 63 -23 78
-40 62 -72 -15 -28 -58 -35 -107 -17 -58 21 -65 4 -8 -17 57 -22 109 -14 132
21 28 44 9 75 -66 104 -76 31 -91 50 -60 81 21 21 42 22 107 3 13 -4 22 -2 22
4 0 11 -62 32 -90 31 -8 0 -25 -4 -38 -9z"/>
<path d="M5453 1046 c-66 -30 -92 -119 -53 -183 35 -58 101 -78 164 -48 42 20
66 63 66 119 0 91 -93 150 -177 112z m123 -40 c26 -26 34 -42 34 -70 0 -70
-42 -116 -107 -116 -58 0 -110 65 -99 124 18 94 108 126 172 62z"/>
<path d="M5897 1045 c-16 -8 -37 -25 -47 -37 l-19 -23 -1 33 c0 17 -4 32 -10
32 -6 0 -10 -47 -10 -120 0 -132 16 -164 22 -46 4 86 25 125 76 141 18 5 32
15 32 22 0 17 -8 16 -43 -2z"/>
<path d="M6362 1049 c-45 -13 -31 -30 14 -17 62 17 124 -12 124 -57 0 -20 -5
-21 -69 -21 -60 1 -73 -2 -95 -23 -78 -73 32 -170 129 -113 28 17 35 18 35 7
0 -8 5 -15 10 -15 6 0 10 38 10 94 0 84 -3 98 -22 120 -27 30 -85 40 -136 25z
m116 -115 c27 -8 30 -48 7 -81 -17 -24 -71 -39 -110 -29 -49 13 -58 82 -13
104 26 12 81 15 116 6z"/>
<path d="M7015 1046 c-120 -54 -78 -246 54 -246 36 0 105 36 96 50 -3 5 -20 0
-38 -10 -64 -40 -134 -15 -157 55 -32 97 73 184 151 126 36 -27 52 -19 22 10
-25 26 -89 33 -128 15z"/>
<path d="M7400 1053 c-32 -12 -71 -59 -81 -95 -8 -32 -6 -46 10 -82 33 -75
115 -98 182 -53 99 66 61 220 -57 232 -21 3 -46 2 -54 -2z m96 -32 c42 -26 60
-78 44 -126 -39 -119 -201 -89 -200 37 1 88 82 134 156 89z"/>
<path d="M7803 1040 c-27 -16 -33 -17 -33 -5 0 8 -4 15 -10 15 -6 0 -10 -47
-10 -120 0 -73 4 -120 10 -120 6 0 10 37 10 90 0 85 2 92 26 115 26 24 65 32
99 19 30 -12 45 -60 45 -144 0 -47 4 -80 10 -80 14 0 13 163 -2 195 -13 30
-55 55 -90 55 -13 0 -38 -9 -55 -20z"/>
<path d="M8483 1049 c-18 -5 -33 -14 -33 -20 0 -7 7 -8 18 -4 68 26 124 11
141 -37 6 -17 11 -33 11 -35 0 -3 -22 -2 -50 2 -59 8 -113 -7 -135 -38 -22
-32 -18 -55 14 -88 36 -36 95 -40 134 -9 30 24 37 25 37 5 0 -8 5 -15 10 -15
14 0 13 149 -1 190 -8 22 -22 37 -45 46 -38 16 -55 16 -101 3z m111 -119 c35
-13 33 -44 -3 -81 -40 -40 -100 -41 -130 -3 -27 34 -26 40 4 69 26 27 82 33
129 15z"/>
<path d="M6110 930 c0 -73 4 -120 10 -120 6 0 10 47 10 120 0 73 -4 120 -10
120 -6 0 -10 -47 -10 -120z"/>
<path d="M9250 930 c0 -73 4 -120 10 -120 6 0 10 47 10 120 0 73 -4 120 -10
120 -6 0 -10 -47 -10 -120z"/>
</g>
</svg>
